{"title":"Saadi Love Story 2013 Hindi Punjabi New Source DvDScr Sample Inc","uid":8054719,"size":756024621,"categoryP":"video","categoryS":"movies","magnet":"?xt=urn:btih:021ca87e12947428abdb10433abaf0df844e597f&amp;dn=Saadi+Love+Story+2013+Hindi+Punjabi+New+Source+DvDScr+Sample+Inc&amp;tr=udp%3A%2F%2Ftracker.openbittorrent.com%3A80&amp;tr=udp%3A%2F%2Fopen.demonii.com%3A1337&amp;tr=udp%3A%2F%2Ftracker.coppersurfer.tk%3A6969&amp;tr=udp%3A%2F%2Fexodus.desync.com%3A6969","seeders":11,"leechers":5,"uploader":"basicssom","files":2,"time":1358935055,"description":"Saadi Love Story 2013 Hindi Punjabi Movies New Source DvDScr Sample Included ~ rDX\n\nScreen Shots :\n &lt;a href=&quot;\nhttp://myimghosting.serveftp.com/SaadiLovStoryDVD.html&quot; rel=&quot;nofollow&quot; target=&quot;_NEW&quot;&gt;\nhttp://myimghosting.serveftp.com/SaadiLovStoryDVD.html&lt;/a&gt;\n &lt;a href=&quot;\nhttp://myimghost.cwahi.net/SaadiLovStoryDVD.html&quot; rel=&quot;nofollow&quot; target=&quot;_NEW&quot;&gt;\nhttp://myimghost.cwahi.net/SaadiLovStoryDVD.html&lt;/a&gt;\n\n\nFormat                                   : Matroska\nFormat version                           : Version 2\nFile size                                : 715 MiB\nDuration                                 : 1h 44mn\nOverall bit rate                         : 953 Kbps\nMovie name                               : Saadi Love Story 2013 DVDScr Hindi\nEncoded date                             : UTC 2013-01-22 15:50:29\nWriting library                          : libebml v1.2.3 + libmatroska v1.3.0\n\nVideo\nID                                       : 1\nFormat                                   : MPEG-4 Visual\nFormat profile                           : Advanced Simple@L5\nFormat settings, BVOP                    : Yes\nFormat settings, QPel                    : Yes\nFormat settings, GMC                     : No warppoints\nFormat settings, Matrix                  : Default (H.263)\nCodec ID                                 : V_MS/VFW/FOURCC / XVID\nCodec ID/Hint                            : XviD\nDuration                                 : 1h 44mn\nBit rate                                 : 806 Kbps\nWidth                                    : 640 pixels\nHeight                                   : 272 pixels\nDisplay aspect ratio                     : 2.35:1\nFrame rate mode                          : Constant\nFrame rate                               : 23.976 fps\nColor space                              : YUV\nChroma subsampling                       : 4:2:0\nBit depth                                : 8 bits\nScan type                                : Progressive\nCompression mode                         : Lossy\nBits/(Pixel*Frame)                       : 0.193\nStream size                              : 605 MiB (85%)\nTitle                                    : Saadi Love Story 2013 DVDScr Hindi\nWriting library                          : XviD 1.2.1 (UTC 2008-12-04)\nLanguage                                 : Hindi\nDefault                                  : Yes\nForced                                   : No\n\nAudio\nID                                       : 2\nFormat                                   : MPEG Audio\nFormat version                           : Version 1\nFormat profile                           : Layer 2\nMuxing mode                              : Header stripping\nCodec ID                                 : A_MPEG/L2\nCodec ID/Hint                            : MP2\nDuration                                 : 1h 44mn\nBit rate mode                            : Constant\nBit rate                                 : 128 Kbps\nChannel(s)                               : 2 channels\nSampling rate                            : 48.0 KHz\nCompression mode                         : Lossy\nStream size                              : 96.0 MiB (13%)\nTitle                                    : Saadi Love Story 2013 DVDScr Hindi\nLanguage                                 : Hindi\nDefault                                  : Yes\nForced                                   : No","torrent":{"xt":"urn:btih:021ca87e12947428abdb10433abaf0df844e597f","amp;dn":"Saadi+Love+Story+2013+Hindi+Punjabi+New+Source+DvDScr+Sample+Inc","amp;tr":["udp%3A%2F%2Ftracker.openbittorrent.com%3A80","udp%3A%2F%2Fopen.demonii.com%3A1337","udp%3A%2F%2Ftracker.coppersurfer.tk%3A6969","udp%3A%2F%2Fexodus.desync.com%3A6969"],"infoHash":"021ca87e12947428abdb10433abaf0df844e597f","infoHashBuffer":{"type":"Buffer","data":[2,28,168,126,18,148,116,40,171,219,16,67,58,186,240,223,132,78,89,127]},"announce":[],"urlList":[]}}